<svg width="500" height="500" viewBox="0 0 500 500" fill="none" xmlns="http://www.w3.org/2000/svg">
<path d="M250 500C112.154 500 0 387.846 0 250C0 112.154 112.154 0 250 0C387.846 0 500 112.154 500 250C500 387.846 387.846 500 250 500ZM250 4.49993C114.615 4.49993 4.49993 114.615 4.49993 250C4.49993 385.385 114.615 495.5 250 495.5C385.385 495.5 495.5 385.385 495.5 250C495.5 114.615 385.385 4.49993 250 4.49993Z" fill="#46206F"/>
<path d="M198.846 243.038L199.269 243.346C202.538 245.692 207.885 246.115 211.731 242.346C213.615 240.5 214.654 238.154 214.654 235.654C214.654 232.461 213 230.23 212.5 229.615L211.615 228.692C201.346 218.423 195.692 204.807 195.692 190.269C195.692 175.731 201.346 162.115 211.615 151.846C232.808 130.654 267.269 130.654 288.423 151.846C298.692 162.115 304.346 175.731 304.346 190.269C304.346 204.807 298.692 218.423 288.423 228.692L240.577 276.538L240.231 277.077C239.846 277.692 238.577 279.846 238.577 282.73C238.577 285.115 239.423 287.307 241.038 289.115C244.538 293.038 249.923 292.846 253.423 290.615L254 290.23L302 242.23C315.885 228.346 323.538 209.884 323.538 190.269C323.538 170.654 315.885 152.192 302 138.307C273.346 109.654 226.731 109.654 198.077 138.307C184.192 152.192 176.539 170.654 176.539 190.269C176.539 209.884 184.192 228.346 198.077 242.23L198.885 243.038H198.846Z" fill="#46206F"/>
<path d="M367.808 407.923C365.039 409.808 365.846 412.654 368.154 416.038C370.423 419.384 372.615 421.269 375.5 419.307C378.308 417.384 377.462 414.577 375.192 411.231C372.885 407.846 370.539 406.038 367.808 407.923Z" fill="#46206F"/>
<path d="M262.654 301.039L260.846 302.192C256.846 304.769 252.384 306 247.961 306C241.538 306 235.231 303.346 230.731 298.308C228.077 295.346 226.269 291.808 225.423 288L221.346 292.077C213.692 299.731 209.461 309.923 209.461 320.731C209.461 331.538 213.692 341.731 221.346 349.385C237.154 365.192 262.885 365.192 278.692 349.385C286.346 341.731 290.577 331.538 290.577 320.731C290.577 309.923 286.346 299.731 278.692 292.077L276.923 290.192C276.538 289.731 276.038 289.077 275.5 288.231L262.692 301.039H262.654Z" fill="#46206F"/>
<path d="M209.5 449.077L214.231 449.885L213.231 441.654L209.5 449.077Z" fill="#46206F"/>
<path d="M279.346 441.808L277.538 442.077L279.461 455.346L281.269 455.077C285.615 454.461 286.961 452.654 286.23 447.577C285.538 442.692 283.731 441.154 279.346 441.808Z" fill="#46206F"/>
<path d="M307.885 73.5382C313.423 75.3843 316.346 71.2689 318.539 64.7305C320.731 58.0766 320.769 52.9996 315.385 51.2304C309.962 49.4227 306.923 53.4612 304.692 60.1535C302.539 66.7304 302.192 71.6536 307.885 73.5382Z" fill="#46206F"/>
<path d="M278.654 218.962C286.307 211.308 290.538 201.115 290.538 190.308C290.538 179.5 286.307 169.308 278.654 161.654C262.846 145.846 237.115 145.846 221.307 161.654C213.653 169.308 209.423 179.5 209.423 190.308C209.423 201.115 213.653 211.308 221.307 218.962L223.038 220.808C223.423 221.269 223.923 221.962 224.5 222.769L237.307 209.962L239.115 208.808C248.923 202.538 261.577 204.154 269.23 212.731C271.884 215.692 273.692 219.231 274.538 223.038L278.615 218.962H278.654Z" fill="#46206F"/>
<path d="M301.154 267.961L300.731 267.654C297.462 265.307 292.115 264.884 288.269 268.654C286.385 270.5 285.346 272.846 285.346 275.346C285.346 278.538 287 280.769 287.5 281.384L288.385 282.307C298.654 292.577 304.308 306.192 304.308 320.731C304.308 335.269 298.654 348.884 288.385 359.154C267.192 380.346 232.731 380.346 211.577 359.154C201.308 348.884 195.654 335.269 195.654 320.731C195.654 306.192 201.308 292.577 211.577 282.307L259.423 234.461L259.769 233.923C260.154 233.307 261.423 231.154 261.423 228.269C261.423 225.884 260.577 223.692 258.962 221.884C255.462 217.961 250.077 218.154 246.577 220.384L246 220.769L198 268.769C184.115 282.654 176.462 301.115 176.462 320.731C176.462 340.346 184.115 358.807 198 372.692C226.654 401.346 273.269 401.346 301.923 372.692C315.808 358.807 323.461 340.346 323.461 320.731C323.461 301.115 315.808 282.654 301.923 268.769L301.115 267.961H301.154Z" fill="#46206F"/>
<path d="M192.154 255.154C191.846 254.962 191.538 254.769 191.231 254.577L189.885 253.615L188.269 252C174.462 238.192 165.885 220.538 163.462 201.5C141.615 207.462 125.539 227.462 125.539 251.115C125.539 274.769 142.385 295.692 164.962 301.115C168.577 285.308 176.539 270.769 188.308 259.038L192.192 255.154H192.154Z" fill="#46206F"/>
<path d="M250 13.3075C119.269 13.3075 13.3075 119.269 13.3075 250C13.3075 380.731 119.269 486.692 250 486.692C380.731 486.692 486.692 380.731 486.692 250C486.692 119.269 380.731 13.3075 250 13.3075ZM464.538 247.769L457.808 248.192L456.808 232.192L448.692 232.692L449.538 246.269L442.807 246.692L441.961 233.115L433.884 233.615L434.923 249.769L428.192 250.192L426.654 225.692L463.077 223.384L464.615 247.73L464.538 247.769ZM454.692 183.615C456.423 188.961 455.384 194.269 451.961 197.615L446.231 192.961C447.884 191.077 448.923 188.615 447.884 185.461C446.192 180.269 442.077 178.423 434.115 181C425.423 183.808 423.769 187.384 425.384 192.346C426.846 196.807 430.461 197.961 434.038 196.807L431.846 190.077L438.269 188L442.961 202.461C441.615 203.077 439.923 203.769 439.269 204C430.808 206.731 422 204.654 418.73 194.5C415.538 184.654 419.307 176.731 431.5 172.769C444.038 168.692 451.346 173.307 454.692 183.615ZM424.884 124.192L437.923 144.808L432.231 148.423L423.654 134.884L416.769 139.231L424.038 150.73L418.346 154.346L411.077 142.846L404.23 147.154L412.884 160.846L407.192 164.461L394.077 143.692L424.923 124.192H424.884ZM393.615 89.269L399.577 95.1536L378.692 116.307L388.577 126.038L383.846 130.846L368.038 115.231L393.653 89.269H393.615ZM355.961 62.0382L363.038 66.4997L347.154 91.6151L358.884 99.0383L355.269 104.731L336.5 92.8459L356 61.9998L355.961 62.0382ZM296.461 57.4229C299.807 47.346 306.269 40.846 317.538 44.5767C328.654 48.2691 329.961 57.346 326.615 67.4229C323.269 77.4614 316.577 83.8074 305.615 80.192C294.538 76.5382 293.115 67.4613 296.461 57.4229ZM248.307 51.9613C249.077 40.0767 255.038 33.5767 265.807 34.2306C272.23 34.6152 276 37.8075 278.231 42.269L271.692 45.8459C270.654 43.6536 268.731 41.4228 265.692 41.269C260.307 40.9228 257.423 44.8074 256.923 52.5382C256.461 60.1151 258.807 64.3844 264.192 64.7306C267.192 64.9229 269.384 62.9614 270.692 60.9229L276.731 65.3075C273.961 69.4613 269.807 72.1152 263.384 71.7306C252.615 71.0383 247.5 63.8074 248.23 51.9613H248.307ZM173.346 48.2305L178.038 61.8074L191.154 57.269L186.461 43.6921L194.307 40.9997L206.192 75.4997L198.346 78.1921L193.346 63.6536L180.23 68.1921L185.23 82.7305L177.307 85.4614L165.423 50.9614L173.346 48.2305ZM142.384 62.6152L146.115 68.2306L138.307 73.4229L154.807 98.1536L147.846 102.807L131.346 78.0767L123.538 83.269L119.808 77.6536L142.384 62.5767V62.6152ZM57.9228 152.192C60.3843 147.154 64.8842 144.077 69.615 144.077L70.4613 151.423C67.9613 151.615 65.5383 152.654 64.0383 155.654C61.6152 160.538 63.3073 164.731 70.8073 168.423C78.9996 172.461 82.6535 171.077 84.9996 166.384C87.0766 162.154 85.3073 158.846 81.8843 157.154L78.7689 163.5L72.7304 160.538L79.4612 146.884C80.8458 147.384 82.5767 148.038 83.192 148.346C91.192 152.269 96.0381 159.884 91.3074 169.461C86.7305 178.769 78.4997 181.807 67.0382 176.154C55.2305 170.346 53.1536 161.923 57.9613 152.192H57.9228ZM43.0767 192.5L78.4996 201.308L76.4613 209.423L41.0381 200.615L43.0767 192.5ZM36.5382 225.807L43.269 226.115L42.5382 242.115L50.692 242.5L51.3075 228.923L58.0383 229.231L57.4228 242.807L65.4998 243.154L66.2304 226.961L72.9611 227.269L71.8458 251.808L35.3844 250.154L36.4997 225.769L36.5382 225.807ZM102.423 394.115C101.846 394.692 101.115 394.961 100.346 394.961C99.5767 394.961 98.8075 394.654 98.1921 394.038C68.6152 363.461 47.8073 323.807 39.5766 282.423C39.2689 280.807 40.3075 279.231 41.9229 278.923C43.4998 278.615 45.1151 279.654 45.4228 281.269C53.4228 321.538 73.6921 360.115 102.461 389.884C103.615 391.077 103.577 392.961 102.384 394.077L102.423 394.115ZM105 368.461C104.461 368.923 103.769 369.115 103.115 369.115C102.269 369.115 101.384 368.73 100.807 368.038C80.4613 343.192 66.115 313.615 59.3073 282.5C58.9612 280.884 59.9613 279.308 61.5767 278.961C63.1921 278.615 64.7689 279.615 65.1151 281.231C71.7305 311.423 85.6537 340.154 105.384 364.269C106.423 365.538 106.23 367.423 104.961 368.461H105ZM79.9229 117.231L85.4996 111L96.2306 120.538L105.461 110.192L94.7305 100.654L100.269 94.4614L127.5 118.731L121.961 124.923L110.461 114.692L101.231 125.038L112.73 135.269L107.154 141.5L79.9229 117.231ZM133.731 420.077C130.384 424.961 126.077 425.154 122 422.384C117.884 419.538 116.538 415.461 119.884 410.615L127.269 399.846L131.307 402.615L124 413.269C122.307 415.731 122.192 417.577 124.307 419.038C126.423 420.5 128.115 419.692 129.807 417.231L137.115 406.577L141.154 409.346L133.769 420.115L133.731 420.077ZM157.808 425.423C157.731 424 157.23 422.384 155.653 421.577C152.846 420.154 150.423 421.577 148.346 425.577C146.346 429.538 146.615 432.346 149.423 433.807C151 434.615 152.615 434.077 153.807 433.269L156.038 437C153.615 438.577 150.769 439.038 147.423 437.346C141.807 434.5 140.769 429.423 143.923 423.269C147.077 417.077 151.769 415 157.384 417.846C160.73 419.538 162.038 422.115 162.153 425.038L157.808 425.423ZM187.5 438.884L189.769 440.423C193.346 442.846 193.808 445.231 193.115 447.654C191.846 451.846 187.884 453.077 183.692 451.808C179.231 450.461 177.692 447.769 177.307 445.884L181.192 444.154C181.577 445.731 182.307 447.115 184.846 447.884C186.538 448.384 187.769 447.884 188.154 446.615C188.461 445.615 188.154 444.807 186.884 443.923L184.654 442.384C181.192 440.038 180.769 437.577 181.5 435.154C182.461 431.923 185.307 429.384 190.615 430.961C194.269 432.038 195.769 434.077 196.423 436L192.538 437.654C192.115 436.461 191.154 435.423 189.423 434.884C187.923 434.423 186.769 435.038 186.423 436.269C186.153 437.192 186.346 438.038 187.538 438.846L187.5 438.884ZM215.231 458.577L214.654 453.961L207.577 452.731L205.5 456.884L200.423 456L211.23 436.269L216.692 437.192L220.308 459.423L215.231 458.538V458.577ZM248.615 461.307L243.692 461.077L236.5 447.231L235.923 460.769L231 460.538L231.961 439.269L237.077 439.5L244.115 453.115L244.692 439.846L249.538 440.077L248.615 461.346V461.307ZM282.077 458.961L275.115 459.961L272.077 438.923L279.038 437.923C286.23 436.884 290.115 439.654 291.154 446.923C292.192 454.192 289.269 457.923 282.077 458.961ZM303.884 454.884L298.73 434.231L303.461 433.038L308.615 453.692L303.884 454.884ZM320.423 450.384L313.346 430.307L326.769 425.577L328.077 429.269L319.269 432.384L320.846 436.884L328.346 434.231L329.654 437.923L322.192 440.577L323.769 445.038L332.692 441.884L334 445.577L320.5 450.346L320.423 450.384ZM352.538 437.5C347.115 440.192 342.23 438.692 338.884 432.038C335.461 425.154 337.461 420.538 343.153 417.692C346.077 416.23 349.269 416.384 351.461 418.038L349.269 421.731C348.038 420.923 346.538 420.577 344.808 421.423C341.961 422.846 341.269 425.384 343.423 429.731C345.807 434.5 348 435.154 350.731 433.807C353.192 432.577 353.538 430.384 352.538 428.423L348.846 430.269L347.077 426.731L355.038 422.769C355.5 423.5 356.077 424.384 356.23 424.769C358.538 429.423 358.115 434.654 352.538 437.461V437.5ZM377.692 422.73C372.077 426.577 367.346 424 363.884 418.923C360.384 413.807 359.654 408.5 365.384 404.577C371.038 400.73 375.692 403.346 379.192 408.461C382.654 413.577 383.231 418.923 377.692 422.73ZM337.115 319C337.115 319.615 337.153 320.192 337.153 320.769C337.153 344.077 328.077 366 311.577 382.461C295.115 398.923 273.192 408 249.884 408C226.577 408 204.654 398.923 188.192 382.461C171.692 366 162.615 344.077 162.615 320.769C162.615 320.154 162.615 319.577 162.653 319C131.23 312.423 107.538 284.5 107.538 251.154C107.538 217.807 131.346 189.731 162.923 183.269C164.577 162.654 173.384 143.461 188.192 128.654C222.23 94.6151 277.577 94.6151 311.615 128.654C326.423 143.461 335.231 162.615 336.884 183.269C368.461 189.731 392.269 217.731 392.269 251.154C392.269 284.577 368.577 312.423 337.153 319H337.115ZM394.461 364.346C414.192 340.231 428.115 311.5 434.731 281.307C435.077 279.692 436.654 278.692 438.269 279.038C439.884 279.384 440.884 280.961 440.538 282.577C433.73 313.692 419.384 343.269 399.038 368.115C398.461 368.846 397.577 369.192 396.731 369.192C396.077 369.192 395.384 368.961 394.846 368.538C393.577 367.5 393.384 365.615 394.423 364.346H394.461ZM460.269 282.538C452.038 323.923 431.23 363.538 401.654 394.154C401.077 394.769 400.307 395.077 399.5 395.077C398.692 395.077 398 394.808 397.423 394.231C396.231 393.077 396.192 391.192 397.346 390.038C426.154 360.269 446.384 321.692 454.384 281.423C454.692 279.807 456.307 278.769 457.884 279.077C459.5 279.384 460.538 280.961 460.23 282.577L460.269 282.538Z" fill="#46206F"/>
<path d="M336.539 201.462C334.115 220.538 325.538 238.192 311.692 252L307.808 255.885C308.116 256.077 308.423 256.269 308.731 256.462L310.077 257.423L311.692 259.038C323.423 270.769 331.385 285.308 335 301.115C357.577 295.692 374.423 275.346 374.423 251.115C374.423 226.885 358.308 207.423 336.5 201.5L336.539 201.462Z" fill="#46206F"/>
</svg>
