<svg width="501" height="501" viewBox="0 0 501 501" fill="none" xmlns="http://www.w3.org/2000/svg">
<path d="M226.099 130.708C226.099 130.708 226.407 130.708 226.561 130.67C227.83 130.401 228.638 129.17 228.407 127.901L222.407 97.6698C222.138 96.4006 220.945 95.5929 219.638 95.8237C218.368 96.0929 217.561 97.3237 217.792 98.593L223.792 128.824C224.022 129.939 224.984 130.708 226.099 130.708Z" fill="#E09E19"/>
<path d="M274.099 369.67C272.83 369.939 272.023 371.17 272.253 372.439L278.253 402.67C278.484 403.785 279.445 404.555 280.561 404.555C280.715 404.555 280.869 404.555 281.022 404.516C282.292 404.247 283.099 403.016 282.868 401.747L276.868 371.516C276.599 370.247 275.369 369.439 274.099 369.67Z" fill="#E09E19"/>
<path d="M179.407 148.209C179.868 148.901 180.599 149.247 181.368 149.247C181.83 149.247 182.253 149.132 182.676 148.862C183.753 148.132 184.06 146.67 183.33 145.593L166.214 119.978C165.484 118.901 164.022 118.593 162.945 119.324C161.868 120.055 161.56 121.516 162.291 122.593L179.407 148.209Z" fill="#E09E19"/>
<path d="M321.292 352.132C320.561 351.055 319.099 350.785 318.022 351.478C316.945 352.209 316.638 353.67 317.369 354.747L334.484 380.362C334.946 381.055 335.676 381.401 336.445 381.401C336.907 381.401 337.33 381.285 337.753 381.016C338.83 380.285 339.138 378.824 338.407 377.747L321.292 352.132Z" fill="#E09E19"/>
<path d="M182.637 351.478C181.56 350.747 180.099 351.055 179.368 352.132L162.253 377.747C161.522 378.824 161.83 380.285 162.907 381.016C163.291 381.285 163.753 381.401 164.214 381.401C164.984 381.401 165.714 381.016 166.176 380.362L183.291 354.747C184.022 353.67 183.714 352.209 182.637 351.478Z" fill="#E09E19"/>
<path d="M318.022 148.862C318.407 149.132 318.869 149.247 319.33 149.247C320.099 149.247 320.83 148.862 321.292 148.209L338.407 122.593C339.138 121.516 338.83 120.055 337.753 119.324C336.676 118.593 335.215 118.901 334.484 119.978L317.369 145.593C316.638 146.67 316.945 148.132 318.022 148.862Z" fill="#E09E19"/>
<path d="M226.561 369.67C225.292 369.439 224.061 370.247 223.792 371.516L217.792 401.747C217.522 403.016 218.368 404.247 219.638 404.516C219.792 404.516 219.945 404.555 220.099 404.555C221.176 404.555 222.176 403.785 222.407 402.67L228.407 372.439C228.676 371.17 227.83 369.939 226.561 369.67Z" fill="#E09E19"/>
<path d="M274.099 130.67C274.099 130.67 274.407 130.708 274.561 130.708C275.638 130.708 276.638 129.939 276.868 128.824L282.868 98.593C283.138 97.3237 282.291 96.0929 281.022 95.8237C279.753 95.5929 278.522 96.4006 278.253 97.6698L272.253 127.901C271.984 129.17 272.83 130.401 274.099 130.67Z" fill="#E09E19"/>
<path d="M313.292 454.247C310.138 455.209 310.061 458.17 311.253 462.055C312.446 465.862 313.946 468.324 317.253 467.285C320.484 466.285 320.484 463.362 319.33 459.555C318.138 455.67 316.446 453.286 313.292 454.247Z" fill="#E09E19"/>
<path d="M133.791 439.554L136.022 431.67L129.753 436.978L133.791 439.554Z" fill="#E09E19"/>
<path d="M206.022 459.247L204.253 458.901L201.599 471.939L203.368 472.286C207.638 473.17 209.484 471.901 210.522 466.939C211.484 462.132 210.292 460.093 206.022 459.247Z" fill="#E09E19"/>
<path d="M379.984 65.8237L373.484 70.8621L377.369 73.6314L379.984 65.8237Z" fill="#E09E19"/>
<path d="M65.2915 137.362L67.7531 133.247L59.7915 131.247L65.2915 137.362Z" fill="#E09E19"/>
<path d="M144.33 60.2085L138.33 54.5547L140.176 62.5931L144.33 60.2085Z" fill="#E09E19"/>
<path d="M250.33 0.170044C112.253 0.170044 0.330078 112.093 0.330078 250.17C0.330078 388.247 112.253 500.17 250.33 500.17C388.407 500.17 500.33 388.247 500.33 250.17C500.33 112.093 388.407 0.170044 250.33 0.170044ZM442.099 123.555L450.099 137.093L446.753 139.093L443.984 134.401L429.138 143.17L426.676 139.016L441.522 130.247L438.753 125.555L442.138 123.555H442.099ZM424.33 277.555L422.83 286.17H406.522L404.715 296.516H424.176L422.676 305.131H392.522L400.753 258.478H430.715L429.215 267.093H409.945L408.099 277.516H424.407L424.33 277.555ZM83.9839 222.478L79.5608 220.67C74.8684 218.747 70.9839 214.862 70.9839 209.055C70.9839 200.362 76.4454 193.324 88.9454 193.324C97.1761 193.324 101.215 196.632 103.176 200.285L95.3684 205.939C94.1761 203.67 91.7916 202.285 88.0608 202.285C84.6762 202.285 82.3301 204.285 82.3301 207.939C82.3301 209.939 83.5608 211.478 85.6377 212.285L89.7147 213.939C94.5993 215.939 99.0223 219.131 99.0223 225.555C99.0223 235.439 91.7916 241.439 80.3685 241.439C70.4839 241.439 66.4069 236.478 65.0992 232.824L72.907 226.939C74.0993 230.055 75.9454 232.478 81.2531 232.478C85.1761 232.478 87.6761 230.67 87.6761 226.939C87.6761 224.785 86.2147 223.401 83.9454 222.439L83.9839 222.478ZM99.33 257.785C107.253 257.785 112.099 261.785 114.099 267.055L105.599 271.901C104.638 269.208 102.368 266.785 98.753 266.785C90.1761 266.785 86.1378 275.131 86.1378 286.747C86.1378 293.016 88.5607 296.901 93.4453 296.901C97.0222 296.901 99.8685 294.208 101.715 291.516L109.291 297.055C105.291 302.016 100.369 305.901 91.9455 305.901C80.984 305.901 74.9068 298.016 74.9068 287.208C74.9068 269.208 83.33 257.862 99.2915 257.862L99.33 257.785ZM128.791 328.478L120.099 334.285C119.022 335.016 118.715 336.478 119.445 337.555C119.907 338.247 120.638 338.593 121.407 338.593C121.868 338.593 122.292 338.478 122.715 338.208L137.215 328.516H168.599L125.292 371.824C124.368 372.747 124.368 374.208 125.292 375.132C125.753 375.593 126.368 375.824 126.945 375.824C127.522 375.824 128.138 375.593 128.599 375.132L175.253 328.478H195.138L191.984 333.208C191.253 334.285 191.561 335.747 192.638 336.478C193.022 336.747 193.484 336.862 193.945 336.862C194.715 336.862 195.445 336.478 195.907 335.824L200.792 328.516H215.33L181.407 410.401C180.907 411.593 181.484 412.978 182.676 413.478C182.984 413.593 183.291 413.67 183.561 413.67C184.484 413.67 185.369 413.131 185.715 412.208L220.368 328.516H232.33L228.215 349.247C227.945 350.516 228.792 351.747 230.061 352.016C230.215 352.016 230.368 352.055 230.522 352.055C231.599 352.055 232.599 351.285 232.83 350.17L237.138 328.516H247.984V424.593C247.984 425.901 249.022 426.939 250.33 426.939C251.638 426.939 252.676 425.901 252.676 424.593V328.516H263.522L267.83 350.17C268.061 351.285 269.022 352.055 270.138 352.055C270.291 352.055 270.445 352.055 270.599 352.016C271.868 351.747 272.676 350.516 272.445 349.247L268.33 328.516H280.292L314.945 412.208C315.33 413.093 316.176 413.67 317.099 413.67C317.407 413.67 317.715 413.632 317.984 413.478C319.176 412.978 319.753 411.593 319.253 410.401L285.33 328.516H299.869L304.753 335.824C305.215 336.516 305.945 336.862 306.715 336.862C307.176 336.862 307.599 336.747 308.022 336.478C309.099 335.747 309.407 334.285 308.676 333.208L305.522 328.478H325.407L372.061 375.132C372.522 375.593 373.138 375.824 373.715 375.824C374.291 375.824 374.907 375.593 375.369 375.132C376.292 374.208 376.292 372.747 375.369 371.824L332.061 328.516H363.445L377.945 338.208C378.33 338.478 378.791 338.593 379.253 338.593C380.022 338.593 380.753 338.209 381.215 337.555C381.945 336.478 381.638 335.016 380.561 334.285L371.868 328.478H420.715C391.022 392.901 325.945 437.593 250.369 437.593C174.792 437.593 109.715 392.862 80.0223 328.478H128.868H128.791ZM154.599 202.632H135.33L133.484 213.055H149.792L148.291 221.67H131.984L130.176 232.016H149.638L148.138 240.632H117.984L126.215 193.978H156.176L154.676 202.593L154.599 202.632ZM170.176 276.055C170.176 292.631 163.676 305.824 146.215 305.824C135.599 305.824 129.792 298.516 129.792 287.939C129.792 270.747 136.061 257.785 153.83 257.785C165.484 257.785 170.176 266.016 170.176 276.093V276.055ZM216.368 296.478L214.868 305.093H187.599L195.83 258.439H206.522L199.83 296.478H216.407H216.368ZM192.715 240.67H179.061L174.022 194.016H184.638L187.484 229.785L202.791 194.016H214.407L192.715 240.67ZM263.676 296.478L262.176 305.093H234.907L243.138 258.439H253.83L247.138 296.478H263.715H263.676ZM262.176 202.632H242.907L241.061 213.055H257.368L255.869 221.67H239.561L237.753 232.016H257.215L255.715 240.632H225.561L233.792 193.978H263.753L262.253 202.593L262.176 202.632ZM314.022 277.516L312.522 286.131H296.215L294.407 296.478H313.868L312.369 305.093H282.215L290.445 258.439H320.407L318.907 267.055H299.638L297.791 277.478H314.099L314.022 277.516ZM314.407 240.67H303.099L293.215 211.824L288.253 240.67H277.33L285.676 194.016H297.407L306.984 222.324L311.945 194.016H322.638L314.368 240.67H314.407ZM342.099 202.632L343.599 194.016H376.792L375.292 202.632H364.022L357.33 240.67H346.638L353.33 202.632H342.061H342.099ZM360.791 257.785C368.791 257.785 373.638 261.516 375.561 266.632L367.061 271.478C366.022 268.708 363.753 266.785 359.753 266.785C351.407 266.785 346.484 273.478 346.484 287.285C346.484 294.401 349.33 296.862 354.022 296.862C359.407 296.862 362.715 292.939 363.599 288.093H355.253L356.753 279.478H375.522C375.368 281.324 375.176 283.67 375.022 284.593C373.215 296.401 367.099 305.862 352.868 305.862C342.445 305.862 335.407 299.016 335.407 287.785C335.407 266.939 345.638 257.824 360.753 257.824L360.791 257.785ZM427.176 240.67H416.561L420.099 220.978H403.868L400.407 240.67H389.715L397.945 194.016H408.638L405.407 212.362H421.638L424.869 194.016H435.484L427.215 240.67H427.176ZM433.945 111.709L430.869 114.131L425.138 106.862L421.445 109.785L426.33 115.978L423.253 118.401L418.369 112.208L414.676 115.093L420.484 122.439L417.407 124.862L408.599 113.708L425.176 100.632L433.907 111.709H433.945ZM401.792 76.5546L405.484 80.0546L401.868 94.8238L410.984 85.2853L414.484 88.5931L399.907 103.901L396.368 100.516L400.061 85.4777L390.791 95.2085L387.253 91.8238L401.868 76.5546H401.792ZM380.522 60.1316L385.022 63.2853L378.791 84.7469L374.599 81.7854L376.061 77.4008L370.253 73.2853L366.638 76.1316L362.445 73.17L380.561 60.0931L380.522 60.1316ZM352.522 43.6315L356.792 45.9008L348.753 61.1315L355.869 64.8623L354.061 68.3239L342.676 62.3238L352.522 43.6315ZM324.33 31.9008L331.561 34.593C336.253 36.3238 338.099 39.5546 336.522 43.7854C334.945 47.9777 331.484 49.2085 326.792 47.4777L324.099 46.4777L321.522 53.4392L316.984 51.7469L324.369 31.9392L324.33 31.9008ZM273.022 31.4392C274.099 23.9007 278.368 21.2469 284.599 22.1315C287.83 22.5931 290.33 24.5161 291.176 27.1315L287.292 28.9008C286.715 27.5547 285.715 26.4008 283.792 26.1316C280.676 25.67 278.676 27.3623 277.984 32.1316C277.215 37.3623 278.638 39.1316 281.638 39.5931C284.33 39.9777 285.869 38.4007 286.176 36.2469L282.138 35.67L282.676 31.7854L291.407 33.0546C291.407 33.9008 291.33 34.9777 291.253 35.3623C290.522 40.4777 287.176 44.5161 281.061 43.6315C275.138 42.7854 271.984 38.7853 273.022 31.4392ZM241.83 19.8238L246.945 19.9007L254.291 33.2085L254.484 20.0161L259.291 20.0931L258.984 41.2084L254.061 41.1316L246.561 27.5546L246.407 41.0162L241.484 40.9392L241.83 19.8238ZM225.83 21.2085L228.253 42.2085L223.445 42.7469L221.022 21.7469L225.83 21.17V21.2085ZM198.099 25.5546C201.253 24.8238 204.292 25.67 206.022 27.7854L203.061 30.8623C202.061 29.8238 200.676 29.0931 198.792 29.5546C195.715 30.2854 194.445 32.5546 195.561 37.2854C196.753 42.4393 198.753 43.5546 201.676 42.8623C204.33 42.2469 205.176 40.2084 204.676 38.0931L200.676 39.0161L199.792 35.2084L208.368 33.2085C208.638 34.0162 208.984 35.0161 209.099 35.4007C210.291 40.4007 208.638 45.4008 202.638 46.7854C196.792 48.17 192.407 45.593 190.715 38.4007C188.984 30.9776 191.984 26.9777 198.099 25.5162V25.5546ZM162.138 37.3238L174.022 46.8238L169.176 34.5546L173.638 32.7854L181.407 52.4393L176.83 54.247L164.715 44.5931L169.676 57.0931L165.099 58.9008L157.368 39.2085L162.099 37.3238H162.138ZM138.253 48.9007L155.099 63.5931L150.638 66.1316L147.291 62.9777L141.099 66.5162L142.138 70.9776L137.676 73.5161L133.445 51.5546L138.215 48.8239L138.253 48.9007ZM105.445 71.1315L110.599 77.67L116.907 72.7084L111.753 66.1699L115.522 63.2084L128.599 79.8239L124.83 82.7854L119.33 75.7853L113.022 80.7469L118.522 87.7469L114.715 90.7469L101.638 74.1315L105.445 71.1315ZM85.253 89.3622C87.8299 86.6699 90.6376 86.1316 93.4453 86.8239L92.5993 91.0546C91.2531 90.7084 89.5224 90.7469 88.3301 92.0161C86.1762 94.2853 86.8299 97.0161 90.0992 100.093C93.2915 103.132 96.0609 103.631 98.2147 101.401C99.407 100.131 99.3684 98.4392 98.9453 97.093L103.138 96.0161C103.945 98.7854 103.599 101.632 101.022 104.324C96.7147 108.862 91.5993 108.439 86.5993 103.708C81.5993 98.9392 80.907 93.9007 85.2147 89.3622H85.253ZM250.33 62.67C325.984 62.67 391.138 107.516 420.753 172.016H371.484L380.522 165.978C381.599 165.247 381.907 163.785 381.176 162.708C380.445 161.631 378.984 161.362 377.907 162.055L363.061 171.978H331.792L375.33 128.439C376.253 127.516 376.253 126.055 375.33 125.132C374.407 124.208 372.945 124.208 372.022 125.132L325.138 172.016H305.33L308.638 167.055C309.368 165.978 309.061 164.516 307.984 163.785C306.907 163.055 305.445 163.362 304.715 164.439L299.676 171.978H285.176L319.215 89.8623C319.715 88.67 319.138 87.2854 317.945 86.7854C316.753 86.2854 315.368 86.8623 314.868 88.0546L280.099 171.978H268.215L272.368 151.016C272.638 149.747 271.792 148.516 270.522 148.247C269.253 148.016 268.022 148.824 267.753 150.093L263.407 171.978H252.599V75.6699C252.599 74.3623 251.561 73.3238 250.253 73.3238C248.945 73.3238 247.907 74.3623 247.907 75.6699V171.978H237.099L232.753 150.093C232.484 148.824 231.291 148.016 229.984 148.247C228.715 148.516 227.907 149.747 228.138 151.016L232.292 171.978H220.407L185.638 88.0546C185.138 86.8623 183.792 86.2854 182.561 86.7854C181.369 87.2854 180.792 88.67 181.292 89.8623L215.33 171.978H200.83L195.792 164.439C195.061 163.362 193.638 163.093 192.522 163.785C191.445 164.516 191.138 165.978 191.868 167.055L195.176 172.016H175.369L128.484 125.132C127.561 124.208 126.099 124.208 125.176 125.132C124.253 126.055 124.253 127.516 125.176 128.439L168.715 171.978H137.445L122.599 162.055C121.522 161.324 120.061 161.631 119.33 162.708C118.599 163.785 118.907 165.247 119.984 165.978L129.022 172.016H79.753C109.368 107.478 174.522 62.67 250.176 62.67H250.33ZM56.9453 126.362L78.7915 131.016L76.1376 135.401L71.6762 134.285L68.0223 140.401L71.0992 143.785L68.4453 148.17L54.0992 131.055L56.9453 126.362ZM53.2532 365.439C50.9455 361.055 51.6763 356.862 56.8686 354.132L68.33 348.093L70.5609 352.362L59.2147 358.324C56.5993 359.708 55.5993 361.285 56.7916 363.555C57.9839 365.824 59.8299 365.901 62.4453 364.516L73.7915 358.555L76.0224 362.824L64.5609 368.862C59.3686 371.593 55.4839 369.785 53.2147 365.439H53.2532ZM89.4454 388.939L85.407 387.362C85.9839 386.093 86.2532 384.401 85.2147 383.016C83.3686 380.516 80.5608 380.67 76.9454 383.362C73.4069 385.978 72.4069 388.632 74.253 391.132C75.2915 392.555 76.9838 392.785 78.3685 392.593L78.6762 396.901C75.8301 397.247 73.0607 396.362 70.8684 393.401C67.1376 388.362 68.4453 383.401 73.9838 379.324C79.5222 375.208 84.6376 375.439 88.3684 380.478C90.5991 383.478 90.5992 386.324 89.4454 388.978V388.939ZM114.445 414.17C113.253 413.17 111.984 413.247 111.138 414.208C110.522 414.939 110.33 415.785 111.099 417.016L112.522 419.324C114.792 422.978 114.253 425.324 112.599 427.247C109.753 430.555 105.676 430.016 102.368 427.208C98.8684 424.208 98.5992 421.093 98.9838 419.247H103.215C102.907 420.862 103.022 422.401 105.022 424.131C106.368 425.285 107.676 425.324 108.522 424.324C109.215 423.555 109.253 422.67 108.445 421.362L107.022 419.055C104.83 415.516 105.445 413.132 107.099 411.208C109.292 408.67 112.907 407.555 117.061 411.093C119.907 413.555 120.445 416.016 120.292 418.016L116.138 417.939C116.253 416.67 115.83 415.362 114.445 414.17ZM135.638 450.708L131.33 447.939L132.599 443.516L126.599 439.67L123.099 442.67L118.792 439.901L136.33 426.055L140.945 429.016L135.638 450.708ZM163.945 464.555L159.484 462.516L157.984 447.093L152.484 459.324L148.022 457.285L156.753 438.055L161.407 440.17L162.869 455.285L168.292 443.285L172.676 445.285L163.984 464.516L163.945 464.555ZM215.368 467.978C213.907 475.093 209.945 477.67 202.868 476.208L196.022 474.824L200.215 454.132L207.061 455.516C214.138 456.939 216.83 460.824 215.368 467.978ZM233.138 480.478L228.291 480.093L230.061 459.016L234.907 459.401L233.138 480.478ZM248.907 481.17L248.445 460.055L262.561 459.747L262.638 463.67L253.368 463.862L253.484 468.593L261.369 468.401L261.445 472.324L253.561 472.478L253.676 477.17L263.061 476.978L263.138 480.901L248.907 481.208V481.17ZM286.83 478.516C280.907 479.439 276.715 476.555 275.561 469.247C274.369 461.708 277.676 457.939 283.907 456.978C287.099 456.478 290.061 457.555 291.676 459.824L288.484 462.67C287.561 461.555 286.253 460.747 284.33 461.055C281.215 461.555 279.792 463.708 280.522 468.516C281.33 473.747 283.215 475.016 286.215 474.555C288.907 474.132 289.907 472.17 289.561 470.016L285.522 470.631L284.907 466.785L293.599 465.439C293.83 466.247 294.061 467.285 294.138 467.708C294.945 472.824 292.945 477.632 286.83 478.593V478.516ZM318.407 471.17C311.946 473.17 308.215 469.362 306.407 463.516C304.599 457.632 305.445 452.401 312.022 450.362C318.522 448.362 322.176 452.208 323.984 458.093C325.791 463.939 324.753 469.208 318.369 471.17H318.407ZM356.099 448.785C354.522 449.632 352.868 449.17 352.099 447.747C351.291 446.247 351.83 444.593 353.407 443.747C354.868 442.978 356.561 443.439 357.368 444.901C358.138 446.285 357.561 447.978 356.099 448.785ZM388.253 434.939L386.215 432.439L386.83 423.247C386.984 420.939 386.83 419.132 385.715 417.785C384.753 416.593 383.484 416.17 382.33 417.131C381.022 418.208 381.253 419.593 382.445 421.093L378.83 424.055C376.176 420.785 376.099 417.132 379.83 414.055C383.138 411.362 387.022 411.708 389.484 414.708C391.33 416.978 391.291 420.17 391.061 423.439L390.753 427.978L396.561 423.247L398.984 426.208L388.292 434.939H388.253ZM415.599 410.324C411.522 414.708 406.792 413.439 401.945 408.978C397.138 404.516 395.561 399.785 399.561 395.478C403.599 391.132 408.368 392.362 413.176 396.824C417.984 401.285 419.561 405.978 415.561 410.285L415.599 410.324ZM432.984 388.285L419.369 378.708L418.061 384.093L414.445 382.939L416.099 375.593L418.407 372.285L435.676 384.439L432.945 388.285H432.984ZM447.599 365.016C445.33 369.401 441.984 369.978 439.061 368.439L441.253 364.247C442.407 364.824 443.445 364.478 444.099 363.208C445.253 360.978 443.638 359.17 440.907 357.747C441.138 358.785 441.099 360.516 440.176 362.324C438.407 365.747 434.907 366.747 431.215 364.824C427.791 363.055 426.022 359.247 428.407 354.67C430.984 349.708 436.022 349.747 441.022 352.362C446.907 355.439 450.368 359.708 447.599 365.055V365.016Z" fill="#E09E19"/>
<path d="M140.83 288.016C140.83 292.978 142.484 296.939 147.407 296.939C154.176 296.939 159.292 290.785 159.292 276.17C159.292 270.939 157.561 266.862 152.869 266.862C146.176 266.862 140.869 273.016 140.869 288.054L140.83 288.016Z" fill="#E09E19"/>
<path d="M331.869 42.0932C332.484 40.4394 332.1 39.0162 329.907 38.1701L327.561 37.2855L325.484 42.824L327.83 43.7085C330.061 44.5547 331.253 43.7855 331.869 42.0932Z" fill="#E09E19"/>
<path d="M409.946 400.439C406.522 397.285 404.292 396.285 402.522 398.208C400.753 400.093 401.869 402.285 405.292 405.478C408.715 408.631 410.984 409.593 412.753 407.708C414.522 405.824 413.369 403.632 409.946 400.478V400.439Z" fill="#E09E19"/>
<path d="M431.945 356.516C431.06 358.247 431.714 359.631 433.445 360.554C435.099 361.401 436.637 361.131 437.522 359.439C438.253 358.054 437.868 356.785 437.33 355.939C435.022 354.747 432.907 354.708 431.945 356.554V356.516Z" fill="#E09E19"/>
</svg>
